<?xml version="1.0" encoding="iso-8859-1"?>
<svg xmlns="http://www.w3.org/2000/svg" xmlns:xlink="http://www.w3.org/1999/xlink" version="1.1" viewBox="0 0 463 463" enable-background="new 0 0 463 463" width="40px" height="30px">
  <g>
    <path d="M423.5,80H174.277c-3.515-18.205-19.561-32-38.777-32h-64c-19.43,0-35.617,14.107-38.887,32.613   C14.107,83.883,0,100.07,0,119.5v256C0,397.28,17.72,415,39.5,415h384c21.78,0,39.5-17.72,39.5-39.5v-256   C463,97.72,445.28,80,423.5,80z M71.5,63h64c13.498,0,24.482,10.973,24.499,24.468c0,0.011-0.002,0.021-0.002,0.032   c0,0.016,0.002,0.032,0.002,0.048V343.5c0,13.509-10.991,24.5-24.5,24.5h-64C57.991,368,47,357.009,47,343.5v-256   C47,73.991,57.991,63,71.5,63z M423.5,400h-384C25.991,400,15,389.009,15,375.5v-256c0-10.894,7.149-20.145,17-23.321V343.5   c0,21.78,17.72,39.5,39.5,39.5h64c21.78,0,39.5-17.72,39.5-39.5V95h248.5c13.509,0,24.5,10.991,24.5,24.5v256   C448,389.009,437.009,400,423.5,400z" fill="#16469e"/>
    <path d="m391.5,120h-160c-12.958,0-23.5,10.542-23.5,23.5v32c0,12.958 10.542,23.5 23.5,23.5h160c12.958,0 23.5-10.542 23.5-23.5v-32c0-12.958-10.542-23.5-23.5-23.5zm8.5,55.5c0,4.687-3.813,8.5-8.5,8.5h-160c-4.687,0-8.5-3.813-8.5-8.5v-32c0-4.687 3.813-8.5 8.5-8.5h160c4.687,0 8.5,3.813 8.5,8.5v32z" fill="#16469e"/>
    <path d="m255.5,216c-12.958,0-23.5,10.542-23.5,23.5s10.542,23.5 23.5,23.5 23.5-10.542 23.5-23.5-10.542-23.5-23.5-23.5zm0,32c-4.687,0-8.5-3.813-8.5-8.5s3.813-8.5 8.5-8.5 8.5,3.813 8.5,8.5-3.813,8.5-8.5,8.5z" fill="#16469e"/>
    <path d="m311.5,216c-12.958,0-23.5,10.542-23.5,23.5s10.542,23.5 23.5,23.5 23.5-10.542 23.5-23.5-10.542-23.5-23.5-23.5zm0,32c-4.687,0-8.5-3.813-8.5-8.5s3.813-8.5 8.5-8.5 8.5,3.813 8.5,8.5-3.813,8.5-8.5,8.5z" fill="#16469e"/>
    <path d="m367.5,216c-12.958,0-23.5,10.542-23.5,23.5s10.542,23.5 23.5,23.5 23.5-10.542 23.5-23.5-10.542-23.5-23.5-23.5zm0,32c-4.687,0-8.5-3.813-8.5-8.5s3.813-8.5 8.5-8.5 8.5,3.813 8.5,8.5-3.813,8.5-8.5,8.5z" fill="#16469e"/>
    <path d="m255.5,272c-12.958,0-23.5,10.542-23.5,23.5s10.542,23.5 23.5,23.5 23.5-10.542 23.5-23.5-10.542-23.5-23.5-23.5zm0,32c-4.687,0-8.5-3.813-8.5-8.5s3.813-8.5 8.5-8.5 8.5,3.813 8.5,8.5-3.813,8.5-8.5,8.5z" fill="#16469e"/>
    <path d="m311.5,272c-12.958,0-23.5,10.542-23.5,23.5s10.542,23.5 23.5,23.5 23.5-10.542 23.5-23.5-10.542-23.5-23.5-23.5zm0,32c-4.687,0-8.5-3.813-8.5-8.5s3.813-8.5 8.5-8.5 8.5,3.813 8.5,8.5-3.813,8.5-8.5,8.5z" fill="#16469e"/>
    <path d="m367.5,272c-12.958,0-23.5,10.542-23.5,23.5s10.542,23.5 23.5,23.5 23.5-10.542 23.5-23.5-10.542-23.5-23.5-23.5zm0,32c-4.687,0-8.5-3.813-8.5-8.5s3.813-8.5 8.5-8.5 8.5,3.813 8.5,8.5-3.813,8.5-8.5,8.5z" fill="#16469e"/>
    <path d="m255.5,328c-12.958,0-23.5,10.542-23.5,23.5s10.542,23.5 23.5,23.5 23.5-10.542 23.5-23.5-10.542-23.5-23.5-23.5zm0,32c-4.687,0-8.5-3.813-8.5-8.5s3.813-8.5 8.5-8.5 8.5,3.813 8.5,8.5-3.813,8.5-8.5,8.5z" fill="#16469e"/>
    <path d="m311.5,328c-12.958,0-23.5,10.542-23.5,23.5s10.542,23.5 23.5,23.5 23.5-10.542 23.5-23.5-10.542-23.5-23.5-23.5zm0,32c-4.687,0-8.5-3.813-8.5-8.5s3.813-8.5 8.5-8.5 8.5,3.813 8.5,8.5-3.813,8.5-8.5,8.5z" fill="#16469e"/>
    <path d="m367.5,328c-12.958,0-23.5,10.542-23.5,23.5s10.542,23.5 23.5,23.5 23.5-10.542 23.5-23.5-10.542-23.5-23.5-23.5zm0,32c-4.687,0-8.5-3.813-8.5-8.5s3.813-8.5 8.5-8.5 8.5,3.813 8.5,8.5-3.813,8.5-8.5,8.5z" fill="#16469e"/>
  </g>
</svg>
